<svg width="11" height="12" viewBox="0 0 11 12" fill="none" xmlns="http://www.w3.org/2000/svg">
<path d="M1 7.17357C1 6.29529 1.71199 5.58329 2.59028 5.58329V5.58329C3.01555 5.58329 3.39967 5.32918 3.56601 4.93779L4.90964 1.77629C5.00233 1.55821 5.21634 1.41663 5.45329 1.41663V1.41663C6.16027 1.41663 6.70897 2.03338 6.62669 2.73556L6.49716 3.84087C6.44044 4.32485 6.81864 4.74996 7.30594 4.74996H7.63887C9.11446 4.74996 10.1798 6.16231 9.77443 7.58113L9.52107 8.4679C9.16331 9.72002 8.01886 10.5833 6.71662 10.5833H3.5C2.11929 10.5833 1 9.464 1 8.08329V7.17357Z" stroke="#F4B740"/>
</svg>
